<?xml version="1.0" standalone="no"?>
<!DOCTYPE svg PUBLIC "-//W3C//DTD SVG 20010904//EN"
 "http://www.w3.org/TR/2001/REC-SVG-20010904/DTD/svg10.dtd">
<svg version="1.0" xmlns="http://www.w3.org/2000/svg"
 width="288.000000pt" height="231.000000pt" viewBox="0 0 288.000000 231.000000"
 preserveAspectRatio="xMidYMid meet">

<g transform="translate(0.000000,231.000000) scale(0.100000,-0.100000)"
fill="#000000" stroke="none">
<path d="M1373 1820 c-77 -18 -188 -112 -219 -185 -18 -44 -18 -81 2 -204 14
-91 14 -105 0 -154 -9 -30 -23 -60 -32 -67 -24 -21 -44 -66 -44 -100 0 -17 -7
-41 -15 -54 -9 -13 -18 -47 -22 -76 -6 -50 -5 -52 14 -41 12 6 46 14 77 17 52
6 58 10 71 40 14 33 75 72 94 59 6 -3 17 -3 24 2 6 4 17 8 22 8 6 0 9 20 7 45
-3 37 -12 53 -48 92 -24 25 -46 59 -50 75 -4 15 -11 34 -17 40 -5 8 -7 39 -2
77 l6 64 62 11 c78 14 157 52 195 96 l30 34 27 -40 c27 -41 78 -79 106 -79 13
0 18 -15 23 -75 4 -42 3 -82 -3 -92 -5 -10 -15 -33 -22 -51 -12 -33 -14 -34
-61 -30 -26 1 -48 0 -48 -4 0 -13 -75 -9 -88 4 -7 7 -12 8 -12 2 0 -22 39 -47
65 -42 l25 5 0 -143 0 -144 -27 -6 c-67 -15 -65 -12 -39 -47 35 -47 39 -85 21
-189 -19 -109 -39 -149 -81 -160 -48 -12 -57 -44 -63 -218 l-6 -155 110 0 c80
0 135 -7 204 -23 51 -13 96 -20 100 -17 3 4 5 57 4 118 -1 62 0 199 4 305 4
166 7 191 20 181 12 -11 12 -8 2 17 -7 16 -17 35 -23 42 -6 8 -11 24 -12 35
-2 41 -16 87 -26 87 -5 0 -6 9 -3 20 8 24 8 24 -45 5 -91 -32 -94 -9 -5 34
l60 28 -60 12 c-76 16 -105 28 -105 42 0 8 22 10 78 5 l77 -6 -39 22 c-59 35
-90 63 -82 76 5 8 23 3 60 -18 29 -17 56 -30 59 -30 12 0 7 44 -8 70 -17 30
-18 40 -5 40 19 0 60 -75 60 -111 0 -24 5 -39 15 -43 8 -3 15 -16 15 -28 0
-63 40 -148 126 -272 49 -70 89 -131 88 -134 -1 -15 -67 -51 -104 -57 -22 -4
-40 -9 -40 -11 0 -3 27 -61 60 -129 63 -131 78 -147 138 -147 44 0 92 47 92
89 0 16 -25 68 -57 121 -34 58 -81 159 -119 260 -35 91 -74 177 -87 191 -16
17 -26 42 -30 74 -2 26 -12 56 -21 66 -9 10 -16 35 -16 55 0 26 -12 57 -37 99
-33 53 -38 68 -37 119 1 31 12 100 24 152 27 109 22 142 -30 214 -77 107 -242
165 -377 132z"/>
<path d="M1570 1433 c0 -5 15 -8 34 -8 19 0 32 3 29 8 -2 4 -17 7 -34 7 -16 0
-29 -3 -29 -7z"/>
<path d="M1395 1370 c-4 -6 -3 -16 3 -22 6 -6 12 -6 17 2 4 6 3 16 -3 22 -6 6
-12 6 -17 -2z"/>
<path d="M1590 1354 c0 -9 5 -14 12 -12 18 6 21 28 4 28 -9 0 -16 -7 -16 -16z"/>
<path d="M1494 1331 c0 -21 7 -36 16 -38 10 -3 11 -2 3 4 -6 4 -13 22 -16 38
-4 27 -5 27 -3 -4z"/>
<path d="M916 529 c-37 -56 -70 -116 -73 -133 -10 -65 79 -126 143 -98 16 8
43 51 88 141 69 136 69 141 12 141 -13 0 -40 11 -60 25 -20 14 -38 25 -40 25
-2 0 -33 -46 -70 -101z"/>
</g>
</svg>
