<?xml version="1.0" standalone="no"?>
<!DOCTYPE svg PUBLIC "-//W3C//DTD SVG 20010904//EN"
 "http://www.w3.org/TR/2001/REC-SVG-20010904/DTD/svg10.dtd">
<svg version="1.0" xmlns="http://www.w3.org/2000/svg"
 width="512.000000pt" height="512.000000pt" viewBox="0 0 512.000000 512.000000"
 preserveAspectRatio="xMidYMid meet">

<g transform="translate(0.000000,512.000000) scale(0.100000,-0.100000)"
fill="#000000" stroke="none">
<path d="M465 4015 c-16 -15 -25 -36 -25 -55 0 -19 9 -40 25 -55 24 -25 26
-25 215 -25 189 0 191 0 215 25 16 15 25 36 25 55 0 19 -9 40 -25 55 -24 25
-26 25 -215 25 -189 0 -191 0 -215 -25z"/>
<path d="M985 4015 c-16 -15 -25 -36 -25 -55 0 -19 9 -40 25 -55 l24 -25 501
0 501 0 24 25 c33 32 33 78 0 110 l-24 25 -501 0 -501 0 -24 -25z"/>
<path d="M665 3456 c-33 -33 -33 -79 0 -111 l24 -25 988 0 c598 0 1031 -4
1098 -10 159 -15 302 -52 420 -109 114 -55 188 -106 368 -254 l127 -105 98
-12 c365 -44 674 -167 784 -312 64 -84 68 -102 68 -293 0 -173 0 -176 -25
-200 -23 -24 -30 -25 -143 -25 l-120 0 -6 34 c-13 67 -74 171 -134 228 -192
183 -472 183 -664 0 -60 -57 -121 -161 -134 -228 l-6 -34 -728 0 -728 0 -6 34
c-13 67 -74 171 -134 228 -192 183 -472 183 -664 0 -60 -57 -121 -161 -134
-228 l-6 -34 -210 0 c-208 0 -209 0 -233 -25 -33 -32 -33 -78 0 -110 24 -25
25 -25 233 -25 l210 0 6 -34 c13 -67 74 -171 134 -228 192 -183 472 -183 664
0 60 57 121 161 134 228 l6 34 728 0 728 0 6 -34 c13 -67 74 -171 134 -228
192 -183 472 -183 664 0 60 57 121 161 134 228 l6 34 120 0 c153 0 189 11 254
75 70 70 76 97 72 335 -3 195 -3 195 -34 261 -36 76 -132 184 -214 239 -166
113 -394 189 -698 234 l-104 15 -81 69 c-283 241 -474 338 -762 389 -78 14
-234 17 -1152 20 l-1063 4 -25 -25z m946 -1245 c69 -33 112 -74 150 -143 31
-58 34 -70 34 -148 0 -78 -3 -90 -34 -148 -38 -70 -70 -100 -145 -140 -43 -22
-64 -26 -136 -26 -78 -1 -90 2 -148 33 -69 37 -109 80 -144 151 -32 66 -31
196 2 265 42 86 123 152 215 176 49 13 158 2 206 -20z m2400 0 c69 -33 112
-74 150 -143 31 -58 34 -70 34 -148 0 -78 -3 -90 -34 -148 -38 -70 -70 -100
-145 -140 -43 -22 -64 -26 -136 -26 -78 -1 -90 2 -148 33 -69 37 -109 80 -144
151 -32 66 -31 196 2 265 42 86 123 152 215 176 49 13 158 2 206 -20z"/>
<path d="M285 3055 c-16 -15 -25 -36 -25 -55 0 -19 9 -40 25 -55 l24 -25 481
0 481 0 24 25 c16 15 25 36 25 55 0 19 -9 40 -25 55 l-24 25 -481 0 -481 0
-24 -25z"/>
<path d="M3377 2890 c-19 -16 -54 -39 -78 -50 -42 -19 -67 -20 -717 -20 l-673
0 -24 -25 c-33 -32 -33 -78 0 -110 l24 -25 673 0 c714 0 722 1 815 48 23 12
60 39 83 60 49 47 54 89 15 127 -34 34 -76 33 -118 -5z"/>
<path d="M2045 1115 c-16 -15 -25 -36 -25 -55 0 -19 9 -40 25 -55 24 -25 25
-25 225 -25 200 0 201 0 225 25 16 15 25 36 25 55 0 19 -9 40 -25 55 -24 25
-25 25 -225 25 -200 0 -201 0 -225 -25z"/>
<path d="M2605 1115 c-16 -15 -25 -36 -25 -55 0 -19 9 -40 25 -55 l24 -25 481
0 481 0 24 25 c16 15 25 36 25 55 0 19 -9 40 -25 55 l-24 25 -481 0 -481 0
-24 -25z"/>
</g>
</svg>
