<svg width="58" height="60" viewBox="0 0 58 60" fill="none"  xmlns="http://www.w3.org/2000/svg">
<path d="M40.24 53.536V53.896C40.24 54.184 40.192 54.568 40.096 55.048C40 55.528 39.748 56.008 39.34 56.488C38.932 56.968 38.32 57.388 37.504 57.748C36.688 58.084 35.56 58.252 34.12 58.252C32.68 58.252 31.552 58.084 30.736 57.748C29.92 57.388 29.308 56.968 28.9 56.488C28.492 56.008 28.24 55.528 28.144 55.048C28.048 54.544 28 54.16 28 53.896V52.996V36.868V35.932C28 35.668 28.048 35.296 28.144 34.816C28.24 34.312 28.492 33.82 28.9 33.34C29.308 32.86 29.92 32.452 30.736 32.116C31.552 31.756 32.68 31.576 34.12 31.576C35.56 31.576 36.688 31.756 37.504 32.116C38.32 32.452 38.932 32.86 39.34 33.34C39.748 33.82 40 34.312 40.096 34.816C40.192 35.296 40.24 35.668 40.24 35.932V36.868H37.18V36.472C37.18 36.256 37.144 36.028 37.072 35.788C37 35.524 36.844 35.284 36.604 35.068C36.388 34.852 36.076 34.672 35.668 34.528C35.26 34.36 34.708 34.276 34.012 34.276C33.364 34.276 32.836 34.36 32.428 34.528C32.044 34.672 31.744 34.864 31.528 35.104C31.312 35.344 31.168 35.596 31.096 35.86C31.048 36.1 31.024 36.328 31.024 36.544V36.868V52.996V53.32C31.024 53.536 31.048 53.776 31.096 54.04C31.168 54.28 31.312 54.52 31.528 54.76C31.744 54.976 32.044 55.168 32.428 55.336C32.836 55.48 33.364 55.552 34.012 55.552C34.708 55.552 35.26 55.48 35.668 55.336C36.076 55.168 36.388 54.976 36.604 54.76C36.844 54.544 37 54.316 37.072 54.076C37.144 53.812 37.18 53.584 37.18 53.392V52.996V51.16V48.028C37.18 47.62 37.156 47.296 37.108 47.056C37.06 46.792 36.928 46.612 36.712 46.516C36.52 46.42 36.22 46.408 35.812 46.48C35.404 46.552 34.84 46.708 34.12 46.948V43.924C34.432 43.804 34.732 43.696 35.02 43.6C35.332 43.504 35.62 43.408 35.884 43.312C36.46 43.12 37.084 43.096 37.756 43.24C38.428 43.384 38.98 43.684 39.412 44.14C39.628 44.356 39.784 44.572 39.88 44.788C40 45.004 40.084 45.244 40.132 45.508C40.204 45.748 40.24 46.036 40.24 46.372C40.24 46.684 40.24 47.068 40.24 47.524V49.756V53.536ZM56.0603 53.356V53.932C56.0603 54.22 56.0123 54.604 55.9163 55.084C55.8203 55.564 55.5683 56.044 55.1603 56.524C54.7523 57.004 54.1403 57.424 53.3243 57.784C52.5083 58.12 51.3803 58.288 49.9403 58.288C48.5003 58.288 47.3723 58.12 46.5563 57.784C45.7403 57.424 45.1283 57.004 44.7203 56.524C44.3123 56.044 44.0603 55.564 43.9643 55.084C43.8683 54.58 43.8203 54.196 43.8203 53.932V53.536V43.276C43.8203 43.012 43.8683 42.64 43.9643 42.16C44.0603 41.656 44.3123 41.164 44.7203 40.684C45.1283 40.204 45.7403 39.796 46.5563 39.46C47.3723 39.1 48.5003 38.92 49.9403 38.92C51.3803 38.92 52.5083 39.1 53.3243 39.46C54.1403 39.796 54.7523 40.204 55.1603 40.684C55.5683 41.164 55.8203 41.644 55.9163 42.124C56.0123 42.604 56.0603 42.988 56.0603 43.276V53.356ZM53.0003 52.996V44.212V43.816C53.0003 43.6 52.9643 43.372 52.8923 43.132C52.8203 42.868 52.6643 42.628 52.4243 42.412C52.2083 42.196 51.8963 42.016 51.4883 41.872C51.0803 41.704 50.5283 41.62 49.8323 41.62C49.1843 41.62 48.6563 41.704 48.2483 41.872C47.8643 42.016 47.5643 42.208 47.3483 42.448C47.1323 42.664 46.9883 42.904 46.9163 43.168C46.8683 43.432 46.8443 43.66 46.8443 43.852V44.212V52.996V53.356C46.8443 53.548 46.8683 53.776 46.9163 54.04C46.9883 54.304 47.1323 54.556 47.3483 54.796C47.5643 55.012 47.8643 55.204 48.2483 55.372C48.6563 55.516 49.1843 55.588 49.8323 55.588C50.5283 55.588 51.0803 55.516 51.4883 55.372C51.8963 55.204 52.2083 55.012 52.4243 54.796C52.6643 54.58 52.8203 54.352 52.8923 54.112C52.9643 53.848 53.0003 53.608 53.0003 53.392V52.996Z" fill="black"/>
<path d="M11.476 27L7.588 15.84C7.324 15.936 7.084 16.032 6.868 16.128C6.652 16.2 6.46 16.26 6.292 16.308L5.752 16.488C5.464 16.584 5.188 16.704 4.924 16.848C4.708 16.968 4.516 17.148 4.348 17.388C4.18 17.604 4.084 17.88 4.06 18.216V27H1V5.724V4.968C1 4.704 1.048 4.332 1.144 3.852C1.24 3.348 1.492 2.856 1.9 2.376C2.308 1.896 2.92 1.488 3.736 1.152C4.552 0.791998 5.68 0.611999 7.12 0.611999C8.56 0.611999 9.688 0.791998 10.504 1.152C11.32 1.488 11.932 1.896 12.34 2.376C12.748 2.856 13 3.348 13.096 3.852C13.192 4.332 13.24 4.704 13.24 4.968V5.904V10.116V10.98C13.24 11.748 13.024 12.48 12.592 13.176C12.184 13.872 11.476 14.424 10.468 14.832L14.716 27H11.476ZM4.06 14.04C4.276 13.968 4.54 13.872 4.852 13.752C5.188 13.632 5.536 13.512 5.896 13.392C6.256 13.272 6.616 13.152 6.976 13.032C7.336 12.888 7.66 12.768 7.948 12.672C8.092 12.624 8.236 12.576 8.38 12.528C8.524 12.48 8.656 12.432 8.776 12.384C9.376 12.168 9.76 11.868 9.928 11.484C10.12 11.1 10.216 10.764 10.216 10.476V5.724V5.508C10.216 5.292 10.18 5.064 10.108 4.824C10.036 4.56 9.88 4.32 9.64 4.104C9.424 3.888 9.112 3.708 8.704 3.564C8.296 3.396 7.744 3.312 7.048 3.312C6.4 3.312 5.872 3.396 5.464 3.564C5.08 3.708 4.78 3.9 4.564 4.14C4.348 4.38 4.204 4.632 4.132 4.896C4.084 5.136 4.06 5.364 4.06 5.58V5.904V14.04ZM23.0466 7.92C24.4866 7.92 25.6146 8.1 26.4306 8.46C27.2466 8.796 27.8586 9.204 28.2666 9.684C28.6746 10.164 28.9266 10.656 29.0226 11.16C29.1186 11.64 29.1666 12.012 29.1666 12.276V13.176V13.212V14.004C29.1666 14.412 29.0826 14.868 28.9146 15.372C28.7706 15.876 28.4106 16.416 27.8346 16.992C27.5706 17.28 27.2706 17.496 26.9346 17.64C26.5986 17.784 26.2986 17.892 26.0346 17.964C25.7226 18.06 25.3986 18.108 25.0626 18.108H22.3266C21.7026 18.108 21.1506 18.336 20.6706 18.792C20.1906 19.248 19.9506 19.812 19.9506 20.484V22.104C19.9506 22.68 20.0586 23.136 20.2746 23.472C20.3706 23.64 20.4786 23.784 20.5986 23.904C20.7186 24.024 20.8986 24.132 21.1386 24.228C21.3306 24.324 21.5706 24.408 21.8586 24.48C22.1706 24.552 22.5666 24.588 23.0466 24.588C23.6706 24.588 24.1626 24.528 24.5226 24.408C24.8826 24.264 25.1346 24.144 25.2786 24.048C25.5906 23.808 25.8066 23.52 25.9266 23.184C26.0466 22.848 26.1066 22.488 26.1066 22.104H29.1666V22.968C29.1666 23.616 29.0226 24.216 28.7346 24.768C28.4706 25.32 28.0506 25.8 27.4746 26.208C27.0666 26.496 26.5026 26.748 25.7826 26.964C25.0626 27.18 24.1506 27.288 23.0466 27.288C22.2306 27.288 21.5226 27.216 20.9226 27.072C20.3226 26.952 19.7946 26.796 19.3386 26.604C18.9066 26.388 18.5466 26.148 18.2586 25.884C17.9706 25.62 17.7306 25.356 17.5386 25.092C17.1066 24.468 16.9026 23.748 16.9266 22.932V22.104V20.484V13.212V13.176V12.276C16.9266 11.988 16.9746 11.604 17.0706 11.124C17.1666 10.644 17.4186 10.164 17.8266 9.684C18.2346 9.204 18.8466 8.796 19.6626 8.46C20.4786 8.1 21.6066 7.92 23.0466 7.92ZM26.1066 13.176V12.852C26.1066 12.636 26.0706 12.408 25.9986 12.168C25.9506 11.904 25.8186 11.664 25.6026 11.448C25.3866 11.208 25.0746 11.016 24.6666 10.872C24.2826 10.704 23.7666 10.62 23.1186 10.62C22.4466 10.62 21.8946 10.704 21.4626 10.872C21.0546 11.016 20.7306 11.196 20.4906 11.412C20.2746 11.628 20.1306 11.868 20.0586 12.132C19.9866 12.372 19.9506 12.588 19.9506 12.78V13.176V13.212V13.5V16.524C19.9986 16.308 20.1066 16.14 20.2746 16.02C20.4426 15.876 20.6346 15.768 20.8506 15.696C21.0666 15.624 21.2826 15.576 21.4986 15.552C21.7146 15.528 21.8826 15.516 22.0026 15.516H24.0546C24.6066 15.516 25.0866 15.324 25.4946 14.94C25.9026 14.532 26.1066 14.052 26.1066 13.5V13.212V13.176ZM44.319 27H41.259V13.176V12.852C41.259 12.636 41.223 12.408 41.151 12.168C41.103 11.904 40.971 11.664 40.755 11.448C40.539 11.208 40.227 11.016 39.819 10.872C39.435 10.704 38.919 10.62 38.271 10.62C37.599 10.62 37.047 10.704 36.615 10.872C36.207 11.016 35.883 11.196 35.643 11.412C35.427 11.628 35.283 11.868 35.211 12.132C35.139 12.372 35.103 12.588 35.103 12.78V13.176V27H32.043V12.924V12.276C32.043 11.988 32.091 11.604 32.187 11.124C32.283 10.644 32.535 10.164 32.943 9.684C33.375 9.204 33.999 8.796 34.815 8.46C35.631 8.1 36.759 7.92 38.199 7.92C39.639 7.92 40.767 8.1 41.583 8.46C42.399 8.796 43.011 9.204 43.419 9.684C43.827 10.164 44.079 10.656 44.175 11.16C44.271 11.64 44.319 12.012 44.319 12.276V12.636V27ZM56.3233 24.3V27C54.8833 27 53.7553 26.832 52.9393 26.496C52.1233 26.136 51.4993 25.716 51.0673 25.236C50.6593 24.756 50.4073 24.276 50.3113 23.796C50.2153 23.292 50.1673 22.908 50.1673 22.644V21.996V10.476H47.8633V7.92H50.1673V3.132H53.2273V7.92H56.3233V10.476H53.2273V21.708V22.032C53.2273 22.248 53.2513 22.488 53.2993 22.752C53.3713 22.992 53.5153 23.232 53.7313 23.472C53.9473 23.712 54.2473 23.916 54.6313 24.084C55.0393 24.228 55.5673 24.3 56.2153 24.3H56.3233Z" fill="black"/>
<path d="M18.492 58C18.108 57.616 17.712 57.232 17.304 56.848C16.896 56.464 16.5 56.068 16.116 55.66C15.54 56.452 14.7 57.076 13.596 57.532C12.516 57.964 11.04 58.18 9.168 58.18C5.736 58.18 3.36 57.412 2.04 55.876C1.56 55.324 1.248 54.76 1.104 54.184C0.96 53.584 0.888 53.056 0.888 52.6V50.98C0.888 49.804 1.14 48.7 1.644 47.668C2.148 46.636 2.964 45.808 4.092 45.184L5.136 44.608C4.992 44.488 4.848 44.356 4.704 44.212C4.584 44.068 4.464 43.936 4.344 43.816L4.164 43.672C3.708 43.168 3.396 42.58 3.228 41.908C3.084 41.212 3.012 40.396 3.012 39.46V35.932C3.012 35.812 3.024 35.656 3.048 35.464C3.072 35.248 3.108 35.032 3.156 34.816C3.252 34.48 3.396 34.144 3.588 33.808C3.804 33.448 4.104 33.112 4.488 32.8C4.896 32.488 5.4 32.224 6 32.008C6.624 31.792 7.392 31.66 8.304 31.612C8.424 31.588 8.532 31.576 8.628 31.576H9.132C9.252 31.576 9.42 31.588 9.636 31.612C9.852 31.612 9.972 31.612 9.996 31.612C10.908 31.66 11.664 31.792 12.264 32.008C12.888 32.224 13.392 32.488 13.776 32.8C14.16 33.112 14.448 33.448 14.64 33.808C14.856 34.144 15.012 34.468 15.108 34.78C15.18 35.02 15.216 35.248 15.216 35.464C15.24 35.656 15.252 35.812 15.252 35.932V38.776C15.252 39.928 15.06 40.876 14.676 41.62C14.292 42.364 13.644 43 12.732 43.528L9.78 45.22L14.82 50.512V48.064L17.412 46.3V50.08C17.412 50.56 17.4 51.016 17.376 51.448C17.352 51.88 17.304 52.3 17.232 52.708C17.952 53.428 18.612 54.112 19.212 54.76C19.836 55.384 20.388 55.936 20.868 56.416C21.42 56.992 21.912 57.52 22.344 58H18.492ZM6.072 40.324C6.12 40.972 6.276 41.488 6.54 41.872C6.828 42.232 7.164 42.604 7.548 42.988L7.728 43.168L10.968 41.368C11.52 40.984 11.868 40.552 12.012 40.072C12.156 39.568 12.228 38.956 12.228 38.236V36.292C12.204 36.244 12.192 36.184 12.192 36.112C12.192 36.04 12.18 35.968 12.156 35.896C12.036 35.512 11.76 35.152 11.328 34.816C10.92 34.48 10.188 34.312 9.132 34.312C8.076 34.312 7.344 34.48 6.936 34.816C6.528 35.152 6.264 35.512 6.144 35.896C6.12 35.968 6.096 36.076 6.072 36.22C6.072 36.34 6.072 36.424 6.072 36.472V40.324ZM9.276 55.804C10.596 55.804 11.604 55.6 12.3 55.192C13.02 54.76 13.548 54.172 13.884 53.428C12.708 52.252 11.544 51.1 10.392 49.972C9.264 48.82 8.196 47.728 7.188 46.696C6.924 46.84 6.672 46.972 6.432 47.092C6.24 47.212 6.048 47.332 5.856 47.452C5.664 47.572 5.508 47.668 5.388 47.74C4.764 48.22 4.332 48.784 4.092 49.432C3.876 50.08 3.768 50.776 3.768 51.52C3.768 51.544 3.768 51.592 3.768 51.664C3.768 51.736 3.78 51.844 3.804 51.988C3.828 52.204 3.912 52.564 4.056 53.068C4.2 53.548 4.476 53.992 4.884 54.4C5.82 55.336 7.284 55.804 9.276 55.804Z" fill="black"/>
</svg>
