<?xml version="1.0" standalone="no"?>
<!DOCTYPE svg PUBLIC "-//W3C//DTD SVG 20010904//EN"
 "http://www.w3.org/TR/2001/REC-SVG-20010904/DTD/svg10.dtd">
<svg version="1.0" xmlns="http://www.w3.org/2000/svg"
 width="512.000000pt" height="512.000000pt" viewBox="0 0 512.000000 512.000000"
 preserveAspectRatio="xMidYMid meet">

<g transform="translate(0.000000,512.000000) scale(0.100000,-0.100000)"
fill="#000000" stroke="none">
<path d="M1959 4667 c-130 -54 -151 -82 -324 -426 -97 -193 -152 -294 -169
-304 -14 -9 -188 -57 -388 -107 -200 -50 -388 -103 -419 -116 -68 -31 -138
-100 -176 -174 l-28 -55 0 -350 0 -350 28 -55 c39 -76 108 -143 181 -177 55
-25 74 -28 188 -31 l127 -4 11 -33 c6 -18 33 -64 60 -103 162 -231 455 -301
714 -170 72 37 170 128 211 197 l30 51 123 0 122 0 0 -436 0 -437 -76 72 c-85
81 -178 145 -236 163 -28 8 -55 8 -104 0 -223 -37 -375 -230 -362 -460 8 -141
21 -160 381 -547 174 -187 331 -350 348 -362 37 -27 87 -30 129 -8 43 22 60
53 60 107 0 57 30 20 -345 423 -348 374 -325 345 -325 411 0 92 49 162 128
184 45 12 43 13 192 -125 180 -166 270 -217 349 -195 42 11 84 51 100 93 8 19
11 260 11 735 0 451 4 720 10 744 30 106 167 119 216 21 18 -36 19 -73 22
-598 l3 -560 444 -189 c245 -104 454 -195 465 -203 11 -8 32 -35 47 -61 l28
-47 5 -318 5 -319 37 -34 c21 -19 48 -34 60 -35 44 -2 72 3 95 18 51 33 53 50
53 361 0 159 -4 311 -9 338 -24 123 -85 227 -173 294 -30 22 -188 95 -420 194
-205 88 -376 162 -381 166 -4 3 -6 136 -5 293 l3 288 44 -61 c162 -222 450
-286 705 -158 83 42 192 153 235 240 l33 67 187 3 c180 3 188 4 247 31 73 34
142 101 181 177 l28 55 0 370 0 370 -29 58 c-48 93 -109 142 -301 239 -94 48
-178 94 -186 105 -9 10 -83 151 -165 313 -164 326 -193 367 -302 418 l-57 27
-805 2 -805 3 -56 -23z m1631 -242 c24 -12 57 -70 185 -325 120 -239 165 -319
198 -352 30 -30 99 -72 227 -138 121 -62 191 -105 204 -123 20 -27 21 -45 24
-285 4 -322 1 -355 -43 -399 l-33 -33 -155 0 -154 0 -7 49 c-4 28 -25 87 -48
133 -72 145 -203 252 -358 293 -72 19 -201 19 -274 0 -142 -37 -284 -148 -348
-272 -18 -35 -35 -63 -38 -63 -3 1 -16 24 -29 53 -89 189 -336 253 -513 134
-100 -68 -164 -184 -175 -319 l-6 -68 -93 0 -94 0 0 33 c0 18 -7 60 -15 92
-51 200 -207 357 -405 410 -72 19 -201 19 -274 0 -196 -51 -366 -228 -406
-421 l-11 -54 -90 0 c-83 0 -91 2 -119 28 -19 16 -35 43 -40 67 -13 54 -12
501 0 546 20 70 28 73 436 176 414 103 465 123 535 201 24 28 92 150 180 326
85 170 151 290 167 303 l27 23 758 0 c655 0 762 -2 787 -15z m-1952 -1445 c65
-33 109 -76 144 -143 19 -35 23 -58 23 -132 0 -78 -4 -97 -27 -140 -97 -183
-325 -226 -485 -91 -18 15 -47 57 -65 94 -28 57 -33 77 -32 137 1 95 30 160
100 224 65 60 116 79 210 80 60 1 80 -4 132 -29z m1990 0 c106 -53 162 -138
170 -256 6 -94 -15 -158 -74 -223 -98 -109 -237 -137 -367 -73 -113 56 -170
147 -171 272 -1 61 4 85 25 130 55 116 154 179 285 179 60 1 80 -4 132 -29z"/>
</g>
</svg>
